<svg width="33" height="24" viewBox="0 0 33 24" fill="none" xmlns="http://www.w3.org/2000/svg">
    <path d="M12.1993 21.4471C10.8938 21.4471 9.66635 21.1991 8.51702 20.7031C7.36785 20.2069 6.36819 19.5336 5.51802 18.6831C4.66769 17.8326 3.99427 16.8326 3.49777 15.6831C3.00127 14.5334 2.75302 13.3058 2.75302 12.0001C2.75302 10.2476 3.19594 8.63143 4.08177 7.1516C4.9676 5.67176 6.18044 4.51585 7.72027 3.68385C7.74011 3.90768 7.76935 4.1346 7.80802 4.3646C7.84669 4.59476 7.90169 4.85535 7.97302 5.14635C6.77502 5.88601 5.83869 6.86093 5.16402 8.0711C4.48935 9.2811 4.15202 10.5908 4.15202 12.0001C4.15202 14.2378 4.93402 16.1385 6.49802 17.7023C8.06202 19.2662 9.96294 20.0481 12.2008 20.0481C14.4388 20.0481 16.3403 19.2663 17.9053 17.7026C19.4704 16.1389 20.253 14.2383 20.253 12.0008C20.253 10.591 19.9113 9.27785 19.2278 8.06135C18.5443 6.84468 17.6008 5.86718 16.3973 5.12885C16.4651 4.84751 16.5199 4.59235 16.5615 4.36335C16.603 4.13451 16.6409 3.90801 16.675 3.68385C18.2115 4.51068 19.4251 5.66443 20.3158 7.1451C21.2066 8.6256 21.652 10.2429 21.652 11.9971C21.652 13.3036 21.4034 14.5318 20.906 15.6816C20.4087 16.8316 19.7343 17.832 18.8828 18.6828C18.0313 19.5337 17.0309 20.2071 15.8815 20.7031C14.7322 21.1991 13.5048 21.4471 12.1993 21.4471ZM12.2 17.4471C10.6879 17.4471 9.40194 16.9172 8.34227 15.8573C7.28277 14.7975 6.75302 13.5123 6.75302 12.0018C6.75302 11.1717 6.92827 10.389 7.27877 9.65385C7.62944 8.91868 8.12969 8.29593 8.77952 7.7856C8.85085 7.99076 8.92327 8.20985 8.99677 8.44285C9.0701 8.67585 9.15835 8.93818 9.26152 9.22985C8.89685 9.60368 8.62077 10.0281 8.43327 10.5031C8.24577 10.9781 8.15202 11.4776 8.15202 12.0016C8.15202 13.1223 8.54652 14.0768 9.33552 14.8653C10.1245 15.6538 11.0796 16.0481 12.2008 16.0481C13.3221 16.0481 14.2778 15.6537 15.0678 14.8648C15.8579 14.076 16.253 13.1211 16.253 12.0001C16.253 11.4733 16.1569 10.9741 15.9645 10.5026C15.7722 10.0311 15.4953 9.60685 15.1338 9.22985C15.2254 8.94151 15.2924 8.73818 15.3345 8.61985C15.3769 8.50151 15.4676 8.22026 15.6068 7.7761C16.2606 8.28643 16.7649 8.91076 17.1198 9.6491C17.4746 10.3874 17.652 11.1711 17.652 12.0001C17.652 13.5111 17.1214 14.7967 16.0603 15.8568C14.9991 16.917 13.7124 17.4471 12.2 17.4471ZM11.4328 8.1971C10.8161 6.3401 10.4236 5.07735 10.2553 4.40885C10.0871 3.74018 10.003 3.10393 10.003 2.5001C10.003 1.88926 10.2164 1.3696 10.6433 0.941096C11.0703 0.51243 11.5892 0.298096 12.2 0.298096C12.8109 0.298096 13.3305 0.51243 13.759 0.941096C14.1877 1.3696 14.402 1.88926 14.402 2.5001C14.402 3.10393 14.317 3.74018 14.147 4.40885C13.9772 5.07735 13.5839 6.3401 12.9673 8.1971H11.4328ZM12.2003 13.6971C11.7276 13.6971 11.3266 13.532 10.9973 13.2018C10.6678 12.8715 10.503 12.4705 10.503 11.9988C10.503 11.5272 10.6681 11.1258 10.9983 10.7948C11.3286 10.4637 11.7296 10.2981 12.2013 10.2981C12.6729 10.2981 13.0743 10.4636 13.4053 10.7946C13.7364 11.1254 13.902 11.5272 13.902 11.9998C13.902 12.4725 13.7365 12.8735 13.4055 13.2028C13.0747 13.5323 12.6729 13.6971 12.2003 13.6971Z" fill="#D6D6D6"/>
    </svg>
    