<svg xmlns="http://www.w3.org/2000/svg" width="25" height="24" viewBox="0 0 25 24" fill="none">
    <path d="M13.8 3C11.4131 3 9.12391 3.94821 7.43609 5.63604C5.74826 7.32387 4.80005 9.61305 4.80005 12H1.80005L5.69005 15.89L5.76005 16.03L9.80005 12H6.80005C6.80005 8.13 9.93005 5 13.8 5C17.67 5 20.8 8.13 20.8 12C20.8 15.87 17.67 19 13.8 19C11.87 19 10.12 18.21 8.86005 16.94L7.44005 18.36C8.27346 19.198 9.26454 19.8627 10.3561 20.3158C11.4477 20.769 12.6182 21.0015 13.8 21C16.187 21 18.4762 20.0518 20.164 18.364C21.8518 16.6761 22.8 14.3869 22.8 12C22.8 9.61305 21.8518 7.32387 20.164 5.63604C18.4762 3.94821 16.187 3 13.8 3ZM12.8 8V13L17.05 15.52L17.82 14.24L14.3 12.15V8H12.8Z" fill="#D6D6D6"/>
  </svg>