<svg xmlns="http://www.w3.org/2000/svg" width="25" height="24" viewBox="0 0 25 24" fill="none">
    <path opacity="0.32" d="M21.6002 5.66667C21.6002 4.95942 21.3038 4.28115 20.7764 3.78105C20.249 3.28095 19.5336 3 18.7877 3H6.41266C5.66674 3 4.95137 3.28095 4.42392 3.78105C3.89647 4.28115 3.60016 4.95942 3.60016 5.66667V9.93333C3.60016 10.2162 3.71869 10.4875 3.92966 10.6876C4.14064 10.8876 4.42679 11 4.72516 11C5.02353 11 5.30968 10.8876 5.52065 10.6876C5.73163 10.4875 5.85016 10.2162 5.85016 9.93333V5.66667C5.85016 5.52522 5.90942 5.38956 6.01491 5.28954C6.1204 5.18952 6.26347 5.13333 6.41266 5.13333H18.7877C18.9368 5.13333 19.0799 5.18952 19.1854 5.28954C19.2909 5.38956 19.3502 5.52522 19.3502 5.66667V9.93333C19.3502 10.2162 19.4687 10.4875 19.6797 10.6876C19.8906 10.8876 20.1768 11 20.4752 11C20.7735 11 21.0597 10.8876 21.2707 10.6876C21.4816 10.4875 21.6002 10.2162 21.6002 9.93333V5.66667Z" fill="#D6D6D6" fill-opacity="0.866667"/>
    <path d="M19.4972 20.6792L22.2747 17.822C22.483 17.6077 22.6 17.3171 22.6 17.014C22.6 16.711 22.483 16.4204 22.2747 16.206L19.4972 13.3489C19.2888 13.1345 19.0062 13.0139 18.7115 13.0138C18.4168 13.0137 18.1341 13.134 17.9256 13.3483C17.7172 13.5626 17.6 13.8533 17.5999 14.1565C17.5998 14.4597 17.7167 14.7505 17.9251 14.9649L19.9171 17.014L17.9251 19.0632C17.7227 19.2787 17.6107 19.5674 17.6132 19.8671C17.6158 20.1667 17.7326 20.4534 17.9386 20.6653C18.1446 20.8772 18.4232 20.9974 18.7146 21C19.0059 21.0026 19.2876 20.8874 19.4972 20.6792ZM2.92527 16.206C2.71698 16.4204 2.59998 16.711 2.59998 17.014C2.59998 17.3171 2.71698 17.6077 2.92527 17.822L5.7028 20.6792C5.91234 20.8874 6.19299 21.0026 6.48429 21C6.77559 20.9974 7.05425 20.8772 7.26024 20.6653C7.46623 20.4534 7.58308 20.1667 7.58561 19.8671C7.58814 19.5674 7.47615 19.2787 7.27377 19.0632L5.28284 17.014L7.27489 14.9649C7.381 14.8595 7.46564 14.7334 7.52387 14.5939C7.58209 14.4545 7.61274 14.3045 7.61402 14.1528C7.6153 14.001 7.58719 13.8505 7.53133 13.7101C7.47547 13.5696 7.39297 13.442 7.28866 13.3347C7.18434 13.2274 7.06029 13.1426 6.92375 13.0851C6.78721 13.0276 6.64092 12.9987 6.4934 13C6.34588 13.0014 6.20009 13.0329 6.06454 13.0928C5.92899 13.1527 5.8064 13.2397 5.70391 13.3489L2.92527 16.206ZM13.711 17.014C13.711 16.7109 13.5939 16.4202 13.3856 16.2059C13.1772 15.9916 12.8946 15.8712 12.6 15.8712C12.3053 15.8712 12.0227 15.9916 11.8144 16.2059C11.606 16.4202 11.489 16.7109 11.489 17.014C11.489 17.3171 11.606 17.6078 11.8144 17.8222C12.0227 18.0365 12.3053 18.1569 12.6 18.1569C12.8946 18.1569 13.1772 18.0365 13.3856 17.8222C13.5939 17.6078 13.711 17.3171 13.711 17.014ZM9.26693 15.8712C9.56159 15.8712 9.84418 15.9916 10.0525 16.2059C10.2609 16.4202 10.3779 16.7109 10.3779 17.014C10.3779 17.3171 10.2609 17.6078 10.0525 17.8222C9.84418 18.0365 9.56159 18.1569 9.26693 18.1569H8.15592C7.86126 18.1569 7.57867 18.0365 7.37032 17.8222C7.16196 17.6078 7.04491 17.3171 7.04491 17.014C7.04491 16.7109 7.16196 16.4202 7.37032 16.2059C7.57867 15.9916 7.86126 15.8712 8.15592 15.8712H9.26693ZM18.155 17.014C18.155 16.7109 18.038 16.4202 17.8296 16.2059C17.6213 15.9916 17.3387 15.8712 17.044 15.8712H15.933C15.6384 15.8712 15.3558 15.9916 15.1474 16.2059C14.9391 16.4202 14.822 16.7109 14.822 17.014C14.822 17.3171 14.9391 17.6078 15.1474 17.8222C15.3558 18.0365 15.6384 18.1569 15.933 18.1569H17.044C17.3387 18.1569 17.6213 18.0365 17.8296 17.8222C18.038 17.6078 18.155 17.3171 18.155 17.014Z" fill="#D6D6D6" fill-opacity="0.866667"/>
  </svg>