<svg xmlns="http://www.w3.org/2000/svg" width="25" height="24" viewBox="0 0 25 24" fill="none">
    <path opacity="0.5" fill-rule="evenodd" clip-rule="evenodd" d="M14.4 22H10.4C6.62902 22 4.74302 22 3.57202 20.828C2.40002 19.657 2.40002 17.771 2.40002 14V10C2.40002 6.229 2.40002 4.343 3.57202 3.172C4.74302 2 6.63902 2 10.43 2C11.036 2 11.521 2 11.93 2.017C11.917 2.097 11.91 2.178 11.91 2.261L11.9 5.095C11.9 6.192 11.9 7.162 12.005 7.943C12.119 8.79 12.38 9.637 13.072 10.329C13.762 11.019 14.61 11.281 15.457 11.395C16.238 11.5 17.208 11.5 18.305 11.5H22.357C22.4 12.034 22.4 12.69 22.4 13.563V14C22.4 17.771 22.4 19.657 21.228 20.828C20.057 22 18.171 22 14.4 22Z" fill="#D6D6D6"/>
    <path d="M10.96 15.4979C11.0301 15.4251 11.0848 15.339 11.1207 15.2446C11.1567 15.1502 11.1733 15.0495 11.1694 14.9486C11.1655 14.8477 11.1412 14.7485 11.0981 14.6572C11.0549 14.5659 10.9938 14.4842 10.9183 14.4171C10.8428 14.3499 10.7546 14.2988 10.6588 14.2666C10.5631 14.2344 10.4618 14.2219 10.3611 14.2298C10.2604 14.2377 10.1623 14.2659 10.0728 14.3127C9.98326 14.3594 9.90408 14.4238 9.84002 14.5019L7.73302 16.8719L6.96102 16.0019C6.82895 15.8531 6.64317 15.7629 6.44457 15.7511C6.24597 15.7392 6.05081 15.8068 5.90202 15.9389C5.75324 16.071 5.66301 16.2567 5.6512 16.4553C5.63938 16.6539 5.70695 16.8491 5.83902 16.9979L7.17302 18.4979C7.24338 18.5769 7.32965 18.6401 7.42616 18.6833C7.52268 18.7266 7.62725 18.749 7.73302 18.749C7.83879 18.749 7.94337 18.7266 8.03988 18.6833C8.1364 18.6401 8.22266 18.5769 8.29302 18.4979L10.96 15.4979ZM11.91 2.25988L11.9 5.09488C11.9 6.19188 11.9 7.16088 12.005 7.94288C12.119 8.78988 12.38 9.63688 13.072 10.3279C13.762 11.0189 14.61 11.2809 15.457 11.3949C16.238 11.4999 17.208 11.4999 18.305 11.4999H22.357C22.37 11.6549 22.379 11.8209 22.385 11.9999H22.4C22.4 11.7319 22.4 11.5979 22.39 11.4399C22.313 10.4896 21.9821 9.57752 21.432 8.79888C21.338 8.67088 21.274 8.59488 21.147 8.44188C20.354 7.49388 19.31 6.31188 18.4 5.49988C17.59 4.77588 16.479 3.98488 15.51 3.33788C14.678 2.78288 14.262 2.50488 13.691 2.29788C13.5249 2.23878 13.356 2.18773 13.185 2.14488C12.801 2.04988 12.427 2.01688 11.9 2.00488L11.91 2.25988Z" fill="#D6D6D6"/>
  </svg>